<?xml version="1.0" encoding="utf-8"?>
<!-- Generator: Adobe Illustrator 23.0.1, SVG Export Plug-In . SVG Version: 6.00 Build 0)  -->
<svg version="1.1" id="Layer_1" xmlns="http://www.w3.org/2000/svg" xmlns:xlink="http://www.w3.org/1999/xlink" x="0px" y="0px"
	 viewBox="0 0 16 16" style="enable-background:new 0 0 16 16;" xml:space="preserve">
<style type="text/css">
	.st0{fill:#3DCD58;}
	.st1{fill:#FFFFFF;}
</style>
<path class="st0" d="M8,0C3.58,0,0,3.59,0,8c0,4.43,3.58,8,8,8c4.42,0,8-3.58,8-8C16,3.59,12.42,0,8,0"/>
<path class="st1" d="M7.72,12.24c-0.27,0-0.53-0.13-0.7-0.34L3.96,8.09C3.65,7.7,3.71,7.13,4.1,6.82c0.39-0.31,0.95-0.25,1.26,0.14
	l2.21,2.75l2.96-5.48c0.24-0.43,0.78-0.6,1.22-0.36c0.44,0.24,0.6,0.78,0.36,1.22l-3.61,6.67c-0.14,0.27-0.41,0.44-0.71,0.47
	C7.78,12.23,7.75,12.24,7.72,12.24"/>
</svg>
