<?xml version="1.0" encoding="utf-8"?>
<!-- Generator: Adobe Illustrator 23.0.1, SVG Export Plug-In . SVG Version: 6.00 Build 0)  -->
<svg version="1.1" id="Layer_2" xmlns="http://www.w3.org/2000/svg" xmlns:xlink="http://www.w3.org/1999/xlink" x="0px" y="0px"
	 viewBox="0 0 16 16" style="enable-background:new 0 0 16 16;" xml:space="preserve">
<style type="text/css">
	.st0{fill:#DC0A0A;}
	.st1{fill:#FFFFFF;}
</style>
<g>
	<path class="st0" d="M8,0.2C3.69,0.2,0.2,3.7,0.2,8c0,4.31,3.49,7.8,7.8,7.8c4.31,0,7.8-3.49,7.8-7.8C15.8,3.7,12.31,0.2,8,0.2"/>
	<path class="st1" d="M7.99,11.03c-0.27,0-0.5,0.09-0.69,0.28c-0.19,0.19-0.28,0.42-0.28,0.68c0,0.31,0.1,0.55,0.3,0.72
		c0.19,0.17,0.42,0.25,0.69,0.25c0.26,0,0.48-0.09,0.68-0.26c0.2-0.17,0.29-0.41,0.29-0.71c0-0.26-0.09-0.49-0.28-0.68
		C8.5,11.12,8.26,11.03,7.99,11.03"/>
	<path class="st1" d="M7.56,9.52C7.69,9.63,7.84,9.69,8,9.69c0.16,0,0.31-0.05,0.43-0.16c0.12-0.11,0.18-0.26,0.18-0.45l0.25-4.83
		c0-0.24-0.08-0.44-0.25-0.6C8.44,3.47,8.24,3.38,7.99,3.38S7.55,3.47,7.38,3.63C7.21,3.8,7.13,4,7.13,4.24l0.25,4.83
		C7.38,9.26,7.44,9.42,7.56,9.52"/>
</g>
</svg>
