<?xml version="1.0" encoding="utf-8"?>
<!-- Generator: Adobe Illustrator 23.0.1, SVG Export Plug-In . SVG Version: 6.00 Build 0)  -->
<svg version="1.1" id="Layer_1" xmlns="http://www.w3.org/2000/svg" xmlns:xlink="http://www.w3.org/1999/xlink" x="0px" y="0px"
	 viewBox="0 0 16 16" style="enable-background:new 0 0 16 16;" xml:space="preserve">
<style type="text/css">
	.st0{fill:#3DCD58;}
</style>
<g>
	<path class="st0" d="M13.96,9.95c-0.36-0.15-0.79,0.01-0.94,0.38c-0.27,0.63-0.65,1.2-1.14,1.69c-0.49,0.49-1.06,0.87-1.69,1.14
		c-1.31,0.55-2.83,0.55-4.14,0c-0.63-0.27-1.2-0.65-1.69-1.14c-0.49-0.49-0.87-1.05-1.13-1.68l2.31,0.61
		c0.38,0.1,0.78-0.13,0.88-0.51c0.1-0.38-0.13-0.78-0.51-0.88L2.24,8.6C1.9,8.51,1.55,8.57,1.27,8.76c-0.29,0.2-0.48,0.52-0.52,0.88
		l-0.43,3.94c-0.04,0.4,0.24,0.75,0.63,0.79c0.03,0,0.05,0,0.08,0c0.36,0,0.67-0.27,0.71-0.64l0.28-2.55
		c0.33,0.68,0.76,1.31,1.3,1.85c0.62,0.62,1.34,1.11,2.15,1.45c0.83,0.35,1.72,0.53,2.63,0.53c0.91,0,1.8-0.18,2.63-0.53
		c0.81-0.34,1.53-0.83,2.15-1.45c0.62-0.62,1.11-1.34,1.45-2.15C14.5,10.53,14.33,10.1,13.96,9.95"/>
	<path class="st0" d="M15.28,2.17c-0.41-0.04-0.75,0.24-0.79,0.64L14.2,5.34c-0.33-0.69-0.76-1.31-1.31-1.86
		c-0.62-0.62-1.34-1.11-2.15-1.45c-1.67-0.71-3.6-0.71-5.26,0c-0.8,0.34-1.53,0.83-2.15,1.45C2.71,4.1,2.23,4.82,1.89,5.63
		C1.73,5.99,1.9,6.42,2.27,6.57c0.36,0.15,0.79-0.01,0.94-0.38c0.27-0.63,0.65-1.2,1.14-1.69c0.49-0.49,1.06-0.87,1.69-1.14
		c1.31-0.56,2.83-0.56,4.14,0c0.63,0.27,1.2,0.65,1.69,1.14c0.49,0.49,0.87,1.06,1.14,1.69c0,0,0,0.01,0.01,0.01l-2.32-0.61
		c-0.38-0.1-0.78,0.13-0.88,0.51c-0.1,0.38,0.13,0.78,0.51,0.88L14,7.94c0.1,0.03,0.2,0.04,0.31,0.04c0.24,0,0.47-0.07,0.66-0.2
		c0.29-0.2,0.47-0.52,0.51-0.88l0.43-3.94C15.96,2.56,15.67,2.21,15.28,2.17"/>
</g>
</svg>
