<?xml version="1.0" encoding="utf-8"?>
<!-- Generator: Adobe Illustrator 23.0.1, SVG Export Plug-In . SVG Version: 6.00 Build 0)  -->
<svg version="1.1" id="Layer_1" xmlns="http://www.w3.org/2000/svg" xmlns:xlink="http://www.w3.org/1999/xlink" x="0px" y="0px"
	 viewBox="0 0 16 16" style="enable-background:new 0 0 16 16;" xml:space="preserve">
<style type="text/css">
	.st0{fill:#626469;}
</style>
<path class="st0" d="M8.06,0.16C7.72,0.17,6.56,0.22,5.99,0.47C5.82,0.54,5.72,0.71,5.72,0.88c0,0.02,0,0.03,0,0.05
	c0,0,0.1,0.86,0.15,1.32c-0.7,0.24-1.39,0.7-1.81,1.02C3.69,3.06,2.81,2.51,2.81,2.51c-0.16-0.1-0.37-0.09-0.52,0.03
	C1.87,2.87,0.63,4.58,0.35,5.93C0.31,6.15,0.43,6.37,0.64,6.44l1.69,0.63c0.23,0.09,0.5-0.03,0.58-0.27
	C2.93,6.76,2.94,6.7,2.94,6.65c0-0.18-0.11-0.36-0.29-0.42c0,0-0.84-0.31-1.3-0.49c0.29-0.88,0.94-1.83,1.3-2.26
	c0.39,0.24,1.21,0.74,1.21,0.74c0.16,0.1,0.37,0.09,0.52-0.03C4.95,3.72,5.8,3.17,6.45,3.04c0.21-0.04,0.36-0.23,0.36-0.44
	c0-0.02,0-0.03,0-0.05c0,0-0.1-0.88-0.15-1.33c0.71-0.15,2.06-0.19,2.63-0.09C9.27,1.51,9.24,2.16,9.2,2.54c0,0.02,0,0.03,0,0.05
	C9.2,2.81,9.36,3,9.58,3.04c0.54,0.08,1.82,0.91,2,1.15c0.07,0.1,0.18,0.18,0.3,0.2c0.12,0.02,0.25-0.01,0.35-0.09l0.1-0.07
	c0.27-0.21,0.65-0.5,0.96-0.73c0.45,0.57,1.05,1.67,1.33,2.25c-0.14,0.06-0.29,0.13-0.29,0.13l-0.9,0.39
	c-0.12,0.05-0.21,0.15-0.25,0.28c-0.01,0.05-0.02,0.09-0.02,0.14c0,0.08,0.02,0.16,0.06,0.23c0.08,0.13,0.11,0.49,0.11,0.9
	c0,0.57-0.06,1.22-0.16,1.42c-0.03,0.06-0.05,0.13-0.05,0.2c0,0.06,0.01,0.12,0.04,0.18c0.05,0.12,0.15,0.22,0.28,0.26
	c0.5,0.16,0.81,0.27,1.25,0.45c-0.06,0.24-0.22,0.64-0.53,1.19c-0.29,0.5-0.56,0.87-0.73,1.07c-0.14-0.09-0.31-0.19-0.47-0.29
	c-0.28-0.17-0.66-0.41-0.73-0.46l0.02,0.02c-0.1-0.09-0.25-0.13-0.39-0.1c-0.13,0.02-0.26,0.1-0.33,0.22l0.01-0.01
	c-0.2,0.29-1.57,1.04-1.89,1.03l0.01,0c-0.15-0.02-0.31,0.05-0.41,0.16c-0.1,0.12-0.14,0.28-0.1,0.43l-0.01-0.03
	c0.02,0.08,0.16,0.84,0.24,1.27c-0.21,0.06-0.63,0.13-1.36,0.1c-0.59-0.02-1.09-0.1-1.37-0.16c0.02-0.42,0.07-1.28,0.07-1.28
	c0-0.01,0-0.02,0-0.02c0-0.24-0.2-0.44-0.44-0.45l0.01,0c-0.32-0.03-1.68-0.89-1.89-1.12l0.03,0.04c-0.07-0.11-0.19-0.19-0.32-0.21
	c-0.13-0.02-0.27,0-0.36,0.08c0,0-0.66,0.55-1.02,0.85c-0.39-0.44-1.12-1.44-1.32-2.33c0.52-0.25,3.92-1.9,3.92-1.9
	c0.16-0.08,0.26-0.23,0.26-0.41c0-1.35,1.1-2.45,2.45-2.45c1.35,0,2.45,1.1,2.45,2.45c0,1.35-1.1,2.45-2.45,2.45
	c-0.7,0-1.36-0.3-1.82-0.82c-0.17-0.19-0.45-0.2-0.64-0.04c-0.19,0.17-0.2,0.45-0.04,0.64c0.64,0.71,1.55,1.12,2.5,1.12
	c0.9,0,1.74-0.35,2.37-0.98c0.63-0.63,0.98-1.48,0.98-2.37c0-1.85-1.51-3.36-3.36-3.36c-1.75,0-3.19,1.35-3.34,3.06
	C4.24,7.93,0.69,9.66,0.69,9.66c-0.16,0.08-0.26,0.24-0.26,0.41c0,0.01,0,0.02,0,0.03c0.11,1.45,1.56,3.27,2.02,3.55
	c0.17,0.1,0.38,0.09,0.53-0.04c0,0,0.67-0.55,1.03-0.85c0.23,0.18,0.51,0.36,0.76,0.52c0.47,0.29,0.79,0.45,1.02,0.54
	c-0.02,0.44-0.07,1.24-0.07,1.24c0,0.01,0,0.02,0,0.02c0,0.11,0.04,0.21,0.11,0.29c0.1,0.12,0.28,0.25,1.09,0.37
	c0.5,0.07,1.06,0.11,1.54,0.1c1.23-0.02,1.59-0.3,1.76-0.51c0.04-0.04,0.06-0.09,0.08-0.15c0.01-0.04,0.02-0.06,0.02-0.1
	c0-0.1-0.04-0.29-0.15-0.9c-0.03-0.14-0.05-0.26-0.07-0.36c0.27-0.08,0.59-0.22,0.96-0.43c0.26-0.14,0.64-0.37,0.93-0.62
	c0.12,0.07,0.27,0.17,0.47,0.29c0.29,0.18,0.58,0.36,0.74,0.47c0.14,0.09,0.31,0.1,0.46,0.02c0.46-0.24,1.11-1.33,1.23-1.54
	c0.33-0.57,0.71-1.34,0.71-1.89c0-0.06,0-0.11-0.01-0.16c-0.02-0.15-0.12-0.28-0.27-0.34c-0.49-0.22-0.81-0.34-1.22-0.48
	c0.07-0.36,0.11-0.83,0.11-1.3c0-0.33-0.02-0.64-0.08-0.91c0.26-0.11,0.54-0.23,0.54-0.23l0.69-0.3c0.17-0.07,0.27-0.24,0.27-0.42
	c0-0.03,0-0.07-0.01-0.1c-0.11-0.46-1.31-2.73-1.99-3.33c-0.15-0.14-0.38-0.15-0.55-0.04c-0.29,0.19-0.74,0.53-1.11,0.82
	c-0.47-0.39-1.25-0.86-1.86-1.08c0.04-0.61,0.07-1.4,0.08-1.44c0-0.01,0-0.01,0-0.02c0-0.14-0.07-0.28-0.19-0.37
	C9.74,0.22,9.08,0.13,8.06,0.16"/>
</svg>
